<?xml version="1.0" standalone="no"?>
<!DOCTYPE svg PUBLIC "-//W3C//DTD SVG 20010904//EN"
 "http://www.w3.org/TR/2001/REC-SVG-20010904/DTD/svg10.dtd">
<svg version="1.0" xmlns="http://www.w3.org/2000/svg"
 width="1728.000000pt" height="1728.000000pt" viewBox="0 0 1728.000000 1728.000000"
 preserveAspectRatio="xMidYMid meet">
<metadata>
Created by potrace 1.14, written by Peter Selinger 2001-2017
</metadata>
<g transform="translate(0.000000,1728.000000) scale(0.100000,-0.100000)"
fill="#000000" stroke="none">
<path d="M9224 17189 c-174 -228 -264 -393 -325 -599 -11 -36 -22 -81 -25
-100 -3 -19 -7 -41 -9 -48 -15 -43 -15 -206 -1 -290 16 -92 61 -222 77 -222 4
0 6 -7 2 -16 -6 -16 100 -125 192 -197 22 -17 42 -34 45 -37 21 -22 96 -62
150 -80 147 -50 291 2 502 182 40 34 69 178 74 368 5 212 -20 331 -105 513
-48 103 -102 195 -137 232 -11 11 -54 64 -98 118 -43 54 -101 116 -130 139
-28 22 -64 55 -79 74 -54 64 -57 63 -133 -37z"/>
<path d="M8217 15471 c-86 -44 -163 -142 -313 -403 -29 -50 -127 -220 -237
-408 -27 -47 -59 -103 -71 -125 -41 -73 -188 -320 -207 -347 -11 -14 -19 -29
-19 -33 0 -3 -6 -12 -12 -20 -7 -7 -38 -53 -68 -101 -133 -214 -378 -572 -503
-733 -62 -81 -258 -324 -267 -331 -4 -3 -37 -41 -75 -85 -134 -155 -249 -277
-455 -483 -235 -234 -450 -433 -899 -827 -457 -402 -703 -637 -947 -905 -118
-131 -342 -433 -445 -603 -146 -239 -308 -589 -333 -717 -2 -14 -11 -52 -20
-85 -25 -98 -62 -307 -74 -420 -15 -143 -3 -2074 14 -2175 14 -90 118 -438
154 -515 5 -11 23 -60 41 -110 18 -49 43 -105 57 -122 13 -18 22 -33 18 -33
-3 0 -1 -12 5 -27 6 -16 12 -36 14 -46 8 -37 211 -350 314 -482 71 -92 282
-301 324 -320 17 -8 61 -38 97 -66 52 -41 349 -196 515 -270 48 -21 181 -69
191 -69 7 0 14 -7 18 -15 3 -8 29 -25 58 -38 29 -13 96 -50 148 -82 145 -88
330 -206 375 -238 22 -15 41 -23 43 -18 8 25 44 6 143 -73 100 -80 145 -126
199 -205 14 -20 62 -72 108 -116 45 -44 82 -83 82 -87 0 -4 11 -23 24 -43 31
-45 61 -135 85 -256 35 -170 111 -493 132 -559 88 -277 401 -661 764 -936 69
-53 104 -76 186 -129 45 -28 161 -85 214 -104 46 -17 67 -31 89 -63 27 -37 27
-40 7 -33 -30 9 -74 13 -88 8 -31 -12 32 -76 151 -155 67 -45 74 -48 118 -42
81 11 122 -19 146 -108 9 -34 7 -42 -50 -135 -99 -165 -180 -345 -204 -453
-18 -87 -24 -145 -23 -223 2 -104 10 -153 46 -267 23 -76 31 -90 70 -119 192
-148 471 -159 676 -27 114 72 187 165 217 274 12 47 32 61 55 42 35 -29 53
114 30 235 -30 156 -113 348 -238 552 -117 189 -126 202 -147 213 -39 21 -24
34 55 45 23 3 50 7 60 9 35 6 104 18 128 21 164 20 424 85 556 138 189 75 444
226 585 347 131 111 208 191 290 300 22 30 44 57 47 60 15 11 150 232 202 330
108 203 296 592 316 653 29 94 32 112 17 132 -12 17 -19 15 -115 -34 -89 -46
-199 -91 -221 -91 -7 0 -6 23 4 95 2 17 5 33 5 37 1 3 22 18 48 33 25 16 108
76 182 134 160 125 180 138 426 276 98 55 309 202 371 260 6 5 22 17 34 25 12
8 30 22 40 30 11 8 32 25 47 37 80 62 163 160 163 193 0 17 12 29 210 210 158
144 404 390 475 475 33 39 63 75 67 80 5 6 36 47 69 93 51 71 84 122 145 227
38 65 158 323 170 365 2 8 26 80 53 160 41 122 92 320 116 445 10 54 34 209
40 260 3 28 8 61 10 75 3 25 16 157 20 215 6 74 17 410 18 505 0 113 -12 507
-19 605 -2 33 -6 98 -9 145 -3 47 -7 105 -9 130 -3 25 -7 90 -11 145 -3 55 -8
113 -11 128 -3 18 -1 26 6 22 10 -6 14 12 11 68 -1 17 -3 89 -5 159 -2 98 -7
132 -18 145 -19 22 -68 118 -68 134 0 6 -19 55 -41 108 -23 53 -47 110 -54
126 -16 38 -23 61 -29 108 -7 45 -61 159 -92 192 -12 13 -30 45 -40 72 -18 49
-79 156 -144 253 -20 30 -44 69 -53 85 -9 17 -53 71 -98 120 -235 258 -285
310 -409 435 -284 283 -599 539 -750 608 -26 12 -123 91 -230 187 -109 98
-212 181 -250 203 -35 20 -96 63 -135 96 -110 94 -511 499 -614 621 -52 61
-103 121 -115 135 -11 14 -55 70 -96 125 -41 55 -77 102 -80 105 -3 3 -9 12
-15 21 -5 8 -48 74 -95 145 -80 120 -102 156 -160 259 -52 92 -99 186 -139
280 -57 130 -65 149 -95 218 -14 32 -26 62 -26 67 0 6 -8 29 -19 53 -10 23
-28 72 -39 108 -23 72 -147 355 -166 379 -7 8 -25 43 -39 76 -15 34 -44 97
-64 140 -20 44 -37 81 -38 84 -1 3 -22 48 -48 101 -25 54 -67 144 -92 200 -25
57 -62 132 -81 167 -19 35 -45 90 -58 122 -40 98 -117 196 -186 239 -43 26
-94 27 -143 2z"/>
<path d="M13869 13747 c-157 -71 -399 -526 -457 -857 -4 -19 -6 -87 -6 -150
-1 -134 22 -214 83 -295 45 -60 47 -63 61 -102 16 -43 83 -109 183 -181 44
-31 99 -74 122 -94 l41 -37 93 19 c364 74 495 187 528 456 4 33 7 140 7 239
l-2 180 -57 120 c-32 66 -80 155 -107 198 -26 43 -48 81 -48 84 0 2 -27 44
-60 93 -35 50 -95 120 -143 163 -45 41 -105 98 -132 126 -53 54 -64 58 -106
38z"/>
<path d="M5555 13683 c-11 -2 -30 -6 -43 -9 -34 -7 -101 -72 -126 -123 -99
-199 -37 -462 159 -670 127 -135 259 -176 381 -116 120 59 185 202 163 362
-28 203 -171 425 -330 512 -68 36 -152 55 -204 44z"/>
<path d="M11049 13313 c-60 -37 -151 -192 -200 -343 -42 -126 -49 -276 -19
-366 57 -166 201 -324 294 -324 14 0 45 -8 68 -17 31 -13 71 -18 143 -18 87 0
107 4 156 26 106 50 169 126 194 234 22 94 3 214 -32 200 -8 -2 -11 0 -8 5 11
17 -43 175 -95 277 -60 118 -134 211 -218 275 -52 40 -125 70 -136 57 -2 -2
-6 -56 -10 -119 -7 -131 -9 -147 -37 -250 -25 -92 -63 -163 -104 -194 -83 -64
-142 -10 -131 121 8 108 60 233 155 378 49 74 41 96 -20 58z"/>
<path d="M4268 13090 c-17 -11 -24 -32 -34 -115 -9 -72 -82 -367 -111 -450
-14 -38 -42 -101 -61 -140 -37 -71 -144 -195 -167 -195 -17 0 -29 106 -22 187
13 140 53 256 162 473 82 164 97 220 60 220 -12 0 -115 -147 -161 -230 -10
-19 -21 -37 -24 -40 -20 -20 -117 -220 -139 -288 -59 -175 -68 -284 -36 -444
7 -37 44 -121 56 -129 6 -3 11 -13 12 -21 8 -54 150 -208 192 -208 11 0 53
-18 93 -40 68 -37 77 -39 135 -35 101 7 174 42 261 124 80 76 136 179 166 305
11 50 15 185 6 227 -3 13 -8 40 -11 61 -6 46 -29 114 -65 192 -49 106 -52 123
-27 141 22 15 22 15 2 53 -40 79 -146 230 -207 295 -51 55 -66 65 -80 57z"/>
<path d="M3169 11999 c0 -8 -2 -23 -4 -34 -3 -11 -7 -40 -10 -65 -18 -144 -88
-329 -161 -424 -58 -76 -104 -79 -104 -9 0 29 3 33 14 24 41 -34 126 123 182
337 8 29 14 64 14 77 0 28 -28 38 -52 18 -13 -12 -20 -12 -36 -2 -27 17 -50
-2 -107 -91 -98 -150 -145 -306 -140 -456 6 -164 68 -262 235 -369 86 -55 113
-63 201 -60 242 10 426 198 371 377 -6 18 -10 71 -9 118 2 194 -112 390 -303
520 -72 49 -90 57 -91 39z"/>
</g>
</svg>
