<?xml version="1.0" encoding="utf-8"?>
<!-- Generator: Adobe Illustrator 26.1.0, SVG Export Plug-In . SVG Version: 6.00 Build 0)  -->
<svg version="1.1" id="Layer_1" xmlns="http://www.w3.org/2000/svg" xmlns:xlink="http://www.w3.org/1999/xlink" x="0px" y="0px"
	 viewBox="0 0 288 144" style="enable-background:new 0 0 288 144;" xml:space="preserve">
<path d="M179.13,33.71c-0.15-0.45-0.49-0.98-0.87-1.42c-1.19-1.35-2.92-2.06-4.47-2.98c-2.33-1.38-5.11-2.13-6.86-4.18
	c-0.83-0.97-1.54-2.04-2.54-2.87c-1.23-1.02-2.8-1.59-4.34-2.15c-1.64-0.59-3.31-1.19-5.06-1.33c-1.99-0.16-3.98,0.27-5.93,0.69
	c-2.72,0.6-5.53,1.22-7.79,2.75c-1.88,1.27-3.24,3.04-4.86,4.56c-1.74,1.63-3.99,2.82-6.13,3.95c-1.46,0.77-2.71,1.75-3.85,2.8
	c-1.27,1.17-2.35,2.52-3.41,3.84c-0.76,0.95-1.45,1.97-2.03,3.01c-0.87,1.55-1.62,3.15-2.4,4.73c-0.75,1.53-1.5,3.06-2.23,4.6
	c-0.62,1.3-1.23,2.6-1.79,3.91c-0.49,1.14-0.92,2.3-1.35,3.46c-0.17,0.46-0.31,0.93-0.44,1.4c-0.33,1.18-0.71,2.35-1.01,3.53
	c-0.16,0.63-0.19,1.27-0.33,1.9c-0.25,1.18-0.57,2.35-0.8,3.54c-0.23,1.19-0.4,2.38-0.59,3.57c-0.18,1.14-0.39,2.27-0.54,3.42
	c-0.14,1.09-0.25,2.18-0.31,3.28c-0.11,2.03-0.18,4.07-0.24,6.1c-0.11,3.72,0.43,7.5,0.88,11.19c0.21,1.76,0.43,3.51,0.64,5.27
	c0.28,2.33,0.54,4.73,1.53,6.9c1.02,2.25,2.33,4.32,3.81,6.33c3.1,4.21,7.04,7.17,12.37,8.63c0.52,0.14,1.05,0.27,1.59,0.33
	c0.58,0.07,1.17,0.06,1.75,0.08c1.18,0.05,2.36,0.24,3.48,0.58c0.47,0.14,0.94,0.3,1.4,0.47c1.22,0.43,2.45,0.86,3.67,1.3
	c0.32,0.11,1.43,0.7,1.74,0.57c0.43-0.18,0.12-0.82-0.2-0.97c-1-0.45-1.49-1.33-2.3-1.94c-0.71-0.54-1.24-1.25-1.91-1.84
	c-0.77-0.68-1.66-1.19-2.37-1.94c-0.77-0.82-1.39-1.74-1.99-2.67c-1.33-2.07-2.53-4.2-3.67-6.36c-0.57-1.08-1.09-2.18-1.67-3.26
	c-0.53-0.99-1.04-1.88-1.05-3.02c-0.01-0.61,0.11-1.23,0.05-1.84c-0.08-0.84-0.46-1.63-0.62-2.46c-0.43-2.36,1.01-4.82,1.8-7
	c0.67-1.85,1.08-3.56,0.88-5.52c-0.1-0.97-0.42-1.92-0.65-2.88c-0.1-0.42-0.26-0.83-0.31-1.26c-0.11-1.04-0.18-2.08-0.28-3.12
	c-0.67-2.57-1.58-5.1-2.46-7.58c-0.49-1.41-1-2.83-1.18-4.31c-0.2-1.59,0.38-2.75,0.73-4.27c0.17-0.72,0.17-1.46,0.25-2.19
	c0.01-0.1,0.03-0.2,0.1-0.27c0.07-0.07,0.22-0.08,0.27,0.01c0.4-0.32,0.95-0.67,1.4-0.42c0.31,0.16,0.42,0.54,0.41,0.87
	c-0.05,2.14-0.27,4.29-0.13,6.43c0.16,2.4,0.94,4.73,1.7,7.01c0.74,2.22,1.42,4.45,2.12,6.69c0.69,2.19,1.37,4.46,1.35,6.77
	c-0.02,2.34-0.89,4.61-1.98,6.69c-0.15,0.28-0.3,0.57-0.35,0.88c-0.05,0.31,0.01,0.62,0.04,0.93c0.1,0.92,0,1.85,0.07,2.78
	c0.06,0.92,0.32,1.88,0.99,2.57c0.81,0.82,2.12,1.1,3.3,0.92c0.79-0.12,1.52-0.41,2.2-0.79c0.65-0.36,1.15-1,1.78-1.32
	c1.31-0.67,2.29-1.71,3.16-2.85c0.52-0.6,0.99-1.23,1.4-1.87c0.29-0.34,0.56-0.68,0.82-1.04c0.68-0.98,1.14-2.04,1.48-3.16
	c0.76-2.55,1.09-5.19,1.56-7.8c0.47-2.6,0.94-5.24,0.84-7.88c-0.05-1.25-0.21-2.52-0.58-3.73c-0.28-0.93-0.7-1.82-1.18-2.67
	c-0.12-0.22-0.25-0.43-0.37-0.64c-0.09-0.28-0.19-0.55-0.29-0.82c-0.74-1.98-1.63-3.92-2.26-5.94c-0.72-2.29-1-4.7-1.02-7.08
	c0-0.37,0-0.73,0.08-1.09c0.07-0.35,0.21-0.69,0.36-1.02c0.55-1.31,1.1-2.61,1.65-3.92c0.47-1.11,0.93-2.22,1.22-3.38
	c0.4-1.6,0.76-3.13,1.6-4.6c0.2-0.35,0.42-0.71,0.54-1.09c0.09-0.32,0.11-0.65,0.17-0.97c0.12-0.64,0.43-1.25,0.89-1.76
	c0.38-0.43,1.47-0.81,1.67-1.28c0.09-0.22-0.02-0.47-0.16-0.67c-0.9-1.34-2.81-2-4.44-2.2c-1.02-0.13-2.16-0.39-2.88,0.68
	c-0.08,0.12-0.31,0.18-0.49,0.21c-0.12,0.02-0.25-0.03-0.31-0.13c-0.23-0.39-0.41-0.7-0.58-1.01c-0.49-0.94-1.04-1.87-1.44-2.84
	c-0.23-0.56-0.11-1.22-0.33-1.78c-0.46-1.15,0.04-2.16,0.47-3.19c0.13-0.31,0.38-0.61,0.66-0.84c1.61-1.32,3.62-1.3,5.62-1.17
	c1.34,0.09,0.22,1.21-0.02,1.78c-0.42,0.98-0.39,2.07-0.34,3.1c0.02,0.28,0.03,0.57,0.12,0.85c0.1,0.33,0.29,0.64,0.48,0.93
	c0.65,1.03,1.31,2.08,2.23,2.9c2.12,1.88,5.29,2.33,8.22,2.24c0.42-0.01,0.85-0.04,1.25-0.16c0.41-0.12,0.77-0.35,1.14-0.55
	c1.91-1.04,4.12-1.55,6.22-2.14c0.63-0.18,1.27-0.43,1.91-0.44c2.36-0.05,4.74-0.13,7.05,0.48c0.7,0.19,1.43,0.3,2.08,0.57
	c0.82,0.34,1.6,0.75,2.38,1.14C178.95,34.12,179.2,33.93,179.13,33.71z"/>
</svg>
